<svg xmlns="http://www.w3.org/2000/svg" viewBox="0 0 831.9 596.3"><defs><pattern id="Unnamed_Pattern_2" width="72" height="72" data-name="Unnamed Pattern 2" patternTransform="matrix(0 -3.08 -.89 0 1604 26925)" patternUnits="userSpaceOnUse"><path d="M0 0h72v72H0z" class="cls-1"/><g class="cls-2"><path d="M72 6h72M72 30h72M72 54h72M72 18h72M72 42h72M72 66h72M0 6h72M0 30h72M0 54h72M0 18h72M0 42h72M0 66h72M-72 6H0M-72 30H0M-72 54H0M-72 18H0M-72 42H0M-72 66H0" class="cls-3"/></g></pattern><pattern id="Unnamed_Pattern_2-3" width="72" height="72" data-name="Unnamed Pattern 2" patternTransform="matrix(0 -3.07 -.88 0 1671 26821)" patternUnits="userSpaceOnUse"><path d="M0 0h72v72H0z" class="cls-1"/><g class="cls-2"><path d="M72 6h72M72 30h72M72 54h72M72 18h72M72 42h72M72 66h72M0 6h72M0 30h72M0 54h72M0 18h72M0 42h72M0 66h72M-72 6H0M-72 30H0M-72 54H0M-72 18H0M-72 42H0M-72 66H0" class="cls-3"/></g></pattern><pattern id="Unnamed_Pattern_2-5" width="72" height="72" data-name="Unnamed Pattern 2" patternTransform="matrix(0 -1.59 -.92 0 13541 -3365)" patternUnits="userSpaceOnUse"><path d="M0 0h72v72H0z" class="cls-1"/><g class="cls-2"><path d="M72 6h72M72 30h72M72 54h72M72 18h72M72 42h72M72 66h72M0 6h72M0 30h72M0 54h72M0 18h72M0 42h72M0 66h72M-72 6H0M-72 30H0M-72 54H0M-72 18H0M-72 42H0M-72 66H0" class="cls-3"/></g></pattern><pattern id="Unnamed_Pattern_2-7" width="72" height="72" data-name="Unnamed Pattern 2" patternTransform="matrix(0 1.59 .92 0 -13505 3285)" patternUnits="userSpaceOnUse"><path d="M0 0h72v72H0z" class="cls-1"/><g class="cls-2"><path d="M72 6h72M72 30h72M72 54h72M72 18h72M72 42h72M72 66h72M0 6h72M0 30h72M0 54h72M0 18h72M0 42h72M0 66h72M-72 6H0M-72 30H0M-72 54H0M-72 18H0M-72 42H0M-72 66H0" class="cls-3"/></g></pattern><clipPath id="clip-path"><path id="SVGID" d="M0 0h72v72H0z" class="cls-1"/></clipPath><style>.cls-1,.cls-3{fill:none}.cls-2{clip-path:url(#clip-path)}.cls-3{stroke:#e31f17;stroke-width:6px}.cls-4{fill:#fff}.cls-5{fill:#eae4e0}.cls-6{fill:#e20d18}</style></defs><g id="Capa_2" data-name="Capa 2"><g id="Capa_1-2" data-name="Capa 1"><path d="M118-118h595v831H118z" class="cls-4" transform="rotate(90 416 298)"/><path d="M0 0h119v120H0zM0 358h119v118H0z" class="cls-5"/><path d="M59 180a59 59 0 00-59 59h119a59 59 0 00-60-59" class="cls-6"/><path d="M0 239h119v119H0z" class="cls-5"/><path fill="url(#Unnamed_Pattern_2)" d="M0 239h119v119H0z"/><path d="M119 476L0 358l119-119v237z" class="cls-4"/><path d="M0 476h119v119H0z" class="cls-6"/><path d="M59 595a59 59 0 01-59-59h119a59 59 0 01-60 59" class="cls-4"/><path d="M59 179a59 59 0 01-59-59h119a59 59 0 01-60 59" class="cls-6"/><path d="M119 120H0L60 0l59 120z" class="cls-4"/><g><path fill="url(#Unnamed_Pattern_2-3)" d="M118 0h238v121H118z"/><path d="M356 0L237 121V0" class="cls-4"/><path d="M356 0H237" class="cls-6"/><path d="M237 240h119v119H237z" class="cls-5"/><path d="M237 240h119v119L237 240z" class="cls-4"/><path d="M356 299v-59h-60c0 33 27 59 60 59M118 359h119v118H118z" class="cls-6"/><path d="M118 358h119v59H118zM126 240h111V129L126 240zM118 121v111l111-111H118z" class="cls-5"/><path d="M296 181a59 59 0 01-59-60h118a59 59 0 01-59 60" class="cls-6"/><path d="M296 240a59 59 0 01-59-59h118a59 59 0 01-59 59" class="cls-5"/><path d="M237 358v119l-119-60 119-59z" class="cls-4"/><path d="M118 477h119v118H118z" class="cls-5"/><path d="M118 477h119v118L118 477z" class="cls-4"/><path d="M237 535v-58h-60c0 32 27 58 60 58M118 240h119v118H118z" class="cls-6"/><path d="M177 250a49 49 0 11-49 49 49 49 0 0149-49M237 595v-59a59 59 0 0159 59zM296 595v-59a59 59 0 0159 59zM237 536v-59a59 59 0 0159 59zM296 536v-59a59 59 0 0159 59z" class="cls-5"/><path d="M237 358h118v118H237z" class="cls-6" transform="rotate(-90 296 417)"/></g><path d="M474 238h119v119H474z" class="cls-6"/><path d="M474 298h119v59H474zM593 0h119v119H593zM363 357h111v111L363 357zM355 476V365l111 111H355z" class="cls-5"/><g><path d="M831 0H712v119L831 0z" class="cls-6"/><path d="M712 59V0h60c0 33-27 59-60 59" class="cls-5"/><path d="M653 179a59 59 0 0159 59H593a59 59 0 0160-59" class="cls-6"/><path d="M474 357V238l119 60-119 59z" class="cls-4"/></g><g><path d="M653 178a59 59 0 0059-59H593a59 59 0 0060 59" class="cls-6"/><path d="M355 0h119v119H355z" class="cls-5"/><path d="M355 119h119V0L355 119z" class="cls-4"/><path d="M474 60v59h-59c0-32 26-59 59-59M355 238h119v119H355z" class="cls-6"/><path d="M415 347a49 49 0 10-50-50 49 49 0 0050 50M593 119v60a60 60 0 01-59-60z" class="cls-5"/><path d="M534 119v60a60 60 0 01-60-60zM593 179v59a60 60 0 01-59-59zM534 179v59a60 60 0 01-60-59z" class="cls-5"/><path d="M593 119h119L652 0l-59 119z" class="cls-4"/><path d="M553 0h30v119h-30zM493 0h30v119h-30z" class="cls-6"/><path fill="url(#Unnamed_Pattern_2-5)" d="M355 119h119v119H355z"/></g><g><path d="M713 357h118v118H713z" class="cls-5"/><path d="M831 475H713V357l118 118z" class="cls-4"/><path d="M713 417v58h59c0-32-27-58-59-58M773 535a59 59 0 0159 59H713a59 59 0 0160-59" class="cls-6"/><path d="M773 476a59 59 0 0159 59H713a59 59 0 0160-59M832 120v59a59 59 0 01-60-59z" class="cls-5"/><path d="M772 120v59a59 59 0 01-59-59zM832 179v60a59 59 0 01-60-60z" class="cls-5"/><path d="M772 179v60a59 59 0 01-59-60z" class="cls-5"/><path d="M713 239h119v119H713z" class="cls-6" transform="rotate(-90 773 298)"/><path d="M475 359h119v118H475z" class="cls-6"/><path d="M475 358h119v59H475zM705 358H594V247l111 111zM713 239v111L602 239h111z" class="cls-5"/><g><path d="M416 536a59 59 0 01-60-59h119a59 59 0 01-59 59" class="cls-6"/><path d="M594 358v119l-119-60 119-59z" class="cls-4"/></g><g><path d="M416 537a59 59 0 00-60 59h119a59 59 0 00-59-59M594 358h119v119H594z" class="cls-6"/><path d="M654 369a49 49 0 1049 49 49 49 0 00-49-49M475 596v-59a60 60 0 0160 59zM535 596v-59a60 60 0 0159 59z" class="cls-5"/><path d="M475 537v-60a60 60 0 0160 60zM535 537v-60a60 60 0 0159 60z" class="cls-5"/><path fill="url(#Unnamed_Pattern_2-7)" d="M594 477h119v119H594z"/></g></g></g></g></svg>