<svg version="1.1" id="Capa_1" xmlns="http://www.w3.org/2000/svg" xmlns:xlink="http://www.w3.org/1999/xlink" x="0" y="0" viewBox="0 0 29.3 29.1" xml:space="preserve" enable-background="new 0 0 29.3 29.1"><g fill="currentColor"><circle cx="23.6" cy="2.8" r="2.8"/><path d="M27.5,7.2c-0.9-0.5-2.2-0.5-2.2-0.5l-1.8,2.8l-1.8-2.8c0,0-1.7,0-2.6,0.8c-0.6,0.4-2.5,2-2.8,2c-0.9-0.1-3.5-0.8-5-1.2	c-0.7-0.2-1.5,0.2-1.7,1c-0.2,0.8,0.2,1.6,1,1.8c0.4,0.1,4.1,1.2,5.6,1.3c0,0,0.1,0,0.2,0c0.7,0,1.6-0.4,2.5-0.8	c0.2,5.5,1,15.8,1,15.8c0,1,0.7,1.7,1.6,1.7c0.9,0,1.6-0.8,1.6-1.7c0,0-0.3-9.1,0.5-9.1c0.8,0,0.5,9.1,0.5,9.1c0,1,0.7,1.7,1.6,1.7	c0.9,0,1.6-0.8,1.6-1.7c0,0,0.3-4.4,0.6-9c0.7-0.1,1.2-0.6,1.2-1.4c0-0.1,0.1-3.8,0.1-6.6C29.3,8.9,28.9,8,27.5,7.2z"/><path d="M1.6,16V2h15.8v4.8c0.2-0.2,0.5-0.4,0.8-0.6c0.3-0.2,0.6-0.4,0.9-0.5V2c0-0.9-0.7-1.6-1.6-1.6h-16C0.7,0.4,0,1.1,0,2v14.1	c0,0.9,0.7,1.6,1.6,1.6h16c0-0.5-0.1-1.1-0.1-1.6H1.6z"/></g></svg>