<?xml version="1.0" encoding="utf-8"?>
<!-- Generator: Adobe Illustrator 24.1.3, SVG Export Plug-In . SVG Version: 6.00 Build 0)  -->
<svg version="1.1" id="Capa_1" xmlns="http://www.w3.org/2000/svg" xmlns:xlink="http://www.w3.org/1999/xlink" x="0px" y="0px" viewBox="0 0 85.6 90.8" style="enable-background:new 0 0 85.6 90.8;" xml:space="preserve">
	<g fill="currentColor">
		<path d="M82.3,32.5C82.3,32.5,82.3,32.5,82.3,32.5c-0.1,0-0.1,0-0.2,0c-3.1-5.9-6.5-11.8-9.1-16.3c0.5-0.7,0.8-1.6,0.8-2.5
		c-0.1-2.3-2-4.1-4.3-4.1h0c-0.5,0-1,0.1-1.4,0.3C62.5,7.4,55.6,5,46.8,2.7C46.6,1.2,45.2,0,43.5,0l0,0c-1.8,0-3.1,1.4-3.2,3.1
		c-4.2,1.1-8.9,2.4-13.7,3.8l-2.1,0.6c-1.2,0.3-2.3,0.6-3.3,0.9c-0.7-0.5-1.6-0.8-2.6-0.8c0,0,0,0,0,0c-1.1,0-2.2,0.5-3,1.3
		c-0.8,0.8-1.2,1.9-1.2,3c0,0.9,0.3,1.7,0.8,2.3c-4.1,4.1-8,8.5-10.2,13.1c-0.2,0-0.3,0-0.5,0l0,0c-1.8,0-3.3,1.5-3.2,3.3
		c0,1.5,1.1,2.8,2.6,3.1c-0.4,3.5-0.4,7.1-0.4,10.7c0,2.6,0,5.2-0.1,7.6C2.6,52,1.8,52.4,1.2,53C0.4,53.8,0,54.9,0,56
		c0,2.2,1.9,4.1,4.2,4.1c1.6,3,3,7.4,4.2,11.1l0.2,0.6C8.5,72,8.4,72,8.3,72.2c-0.6,0.6-0.9,1.4-0.9,2.3c0,1.7,1.5,3.2,3.3,3.2
		l0.1,0c0.7,0,1.4-0.3,2-0.7c5.4,1.7,11.3,3.9,17,6l1.1,0.4c1.4,0.5,2.8,1,4.2,1.5l0.5,0.5c0.2,0.2,0.3,0.3,0.5,0.5
		c-0.1,0.3-0.1,0.6-0.1,1c0,2.3,2,4.1,4.2,4.1l0.1,0c2.3-0.1,4.2-2,4.2-4.3c0-0.1,0-0.2,0-0.3c2.6-0.2,5.2-0.7,7.8-1.3
		c2.3-0.5,4.7-1,7-1.2c0.2,1.6,1.6,3,3.3,3h0.1c1.8,0,3.3-1.5,3.2-3.3c0-1.1-0.6-2.1-1.5-2.6c0.6-1,1.2-2.2,1.9-3.3l0.2-0.4
		c2.1-3.8,4.5-8,6.9-11.1c0.1,0,0.2,0,0.3,0l0.1,0c2.3,0,4.2-2,4.2-4.3c0-1.3-0.7-2.5-1.7-3.2c2.9-5.7,6.5-14.4,7.6-19.7
		c0.4-0.2,0.8-0.4,1.1-0.7c0.6-0.6,0.9-1.4,0.9-2.3C85.6,34,84.1,32.5,82.3,32.5z M36.4,83.3c-1.4-1.3-2.7-2.6-4.1-3.9l-1.2-1.1
		c1.8,0.3,3.6,0.5,5.4,0.8c0.5,1.4,1,2.8,1.4,4.1c-0.2,0.1-0.5,0.3-0.7,0.5C37,83.5,36.7,83.4,36.4,83.3z M30.4,81.1
		c-5.5-2-11.1-4.1-16.3-5.8c3,0.3,6.8,1.1,10.4,1.8c1,0.2,2,0.4,2.9,0.6c1.2,1.1,2.3,2.2,3.5,3.3l0.5,0.5L30.4,81.1z M10.3,70.6
		c-1.2-3.6-2.6-7.9-4.1-11c0.2-0.1,0.4-0.2,0.6-0.4c3,2.4,6.4,5.3,10.2,8.8c-1.6,1.3-3.1,2.5-4.5,3.7c-0.5-0.4-1.2-0.6-1.9-0.6l0,0
		c0,0-0.1,0-0.1,0C10.4,71,10.4,70.8,10.3,70.6z M5.5,44.3c0-3.6,0-7.4,0.4-10.8c0.7-0.3,1.2-0.8,1.6-1.4c0.9,0.3,1.8,0.7,2.9,1
		c-1.8,6.9-3.2,13.3-4.2,19.2c-0.2-0.1-0.5-0.2-0.7-0.3C5.5,49.4,5.5,46.8,5.5,44.3z M12.8,24.2c-0.7,2.3-1.3,4.7-1.9,6.9
		c-1.1-0.4-2.1-0.8-3-1.1c0-0.2-0.1-0.4-0.2-0.6C8.7,27.8,10.4,26.1,12.8,24.2z M68.6,49.6c0.3-0.3,0.7-0.6,1-0.9
		c0.2,1.3,0.4,2.7,0.6,3.9C69.8,51.6,69.2,50.6,68.6,49.6z M39.8,82.5c-0.3-1-0.7-2.1-1.1-3.2l1.3,0.2L39.8,82.5
		C39.9,82.5,39.8,82.5,39.8,82.5z M66.6,16.9c-1,1.1-2.1,2.2-3.3,3.5c-1.6-1.4-3.2-2.9-4.8-4.3c1.4-0.3,2.8-0.6,4.1-0.9l1.6-0.3
		c0.4-0.1,0.8-0.2,1.2-0.3C65.5,15.4,65.9,16.2,66.6,16.9z M69.7,28.5c1.2,0.9,2.5,1.7,3.7,2.5c1.7,1.1,3.6,2.3,5.1,3.6
		c-2.5,0.1-5.3,0.2-8.5,0.5C69.8,32.8,69.7,30.6,69.7,28.5z M48.8,68.9c-1.9,2.6-3.5,5.8-5.2,9.1c-0.5-0.1-1-0.1-1.5-0.2
		c0.2-4.2,0.4-9.1,0.5-14c2.6,0.6,5.1,1.2,7.2,1.7c0,0.1,0,0.2,0,0.2c0,0.5,0.1,1,0.4,1.4c-0.2,0.3-0.4,0.5-0.7,0.8L48.8,68.9z
		 M55.8,63.9c-0.1-0.2-0.2-0.3-0.4-0.4c1.7-2.2,3.8-4.6,6.3-7.3c2.5,1.5,5,3.1,7.5,4.7c0,0.2-0.1,0.4-0.1,0.5
		C62.9,62.3,58.5,63.2,55.8,63.9z M33.4,59.9c-0.1-0.4-0.3-0.8-0.6-1.2c0.2-0.3,0.4-0.6,0.6-0.9c2.1-3.5,4.3-7.2,7.4-9.8
		c0.1,4.1,0.1,8.4-0.1,13.3C38.1,60.7,35.6,60.2,33.4,59.9z M44.8,46.8c3.3,1.7,6.7,3.5,10.1,5.4c-0.8,3.1-1.6,5.7-2.5,8
		c-2-4.2-4.8-9.2-8-13.1C44.6,47,44.7,46.9,44.8,46.8z M46.1,45c0.1-0.3,0.2-0.6,0.2-0.9c0.6-0.3,1.2-0.5,1.9-0.8
		c2.8-1.2,5.8-2.4,8.5-3.4c0.3,0.3,0.7,0.5,1,0.7c-0.3,1.3-0.6,2.6-0.9,4c-0.4,1.8-0.8,3.6-1.3,5.5C52.3,48.3,49.2,46.7,46.1,45z
		 M38.5,47.4c-2.8,2.7-4.8,6.1-6.8,9.4c-0.2,0.3-0.3,0.6-0.5,0.8c-0.3-0.1-0.6-0.2-1-0.2c0,0,0,0,0,0c-0.1,0-0.1,0-0.2,0
		c-0.9-2-1.8-4.7-2.6-7.5C31.8,48.8,35.9,47.9,38.5,47.4z M42.7,48.1c3.5,4.2,6.6,10.1,8.6,14.6c-0.1,0.1-0.1,0.2-0.2,0.4
		c-0.2,0.1-0.3,0.3-0.5,0.4c0,0,0,0.1-0.1,0.1c-2.3-0.6-5-1.3-8-1.9C42.8,56.7,42.8,52.3,42.7,48.1z M59.9,55.1
		c-2.5,2.5-4.5,4.9-6.2,7.1c1-2.5,2-5.4,3-9C57.7,53.9,58.8,54.5,59.9,55.1z M55.7,38.2c-2.7,1-5.6,2.2-8.3,3.3
		c-0.5,0.2-0.9,0.4-1.3,0.6c-0.2-0.4-0.4-0.8-0.7-1.2c2.4-2.8,5-5.4,7.3-7.6c1.3,1.2,2.4,2.2,3.3,3.2c-0.2,0.4-0.2,0.8-0.2,1.2
		C55.6,37.9,55.6,38,55.7,38.2z M43.7,39.8c0,0-0.1,0-0.1,0c-0.4-4.3-1.3-9.2-2.3-14L41,24.1c0,0,0.1,0,0.1,0
		c1.8,1.6,3.8,3.1,5.7,4.7c1.3,1,2.8,2.2,4.2,3.3C48.7,34.2,46.1,36.9,43.7,39.8z M38.9,24.7c0.1,0.5,0.2,0.9,0.3,1.4
		c0.9,4.6,1.8,9.3,2.2,13.4c-0.4,0.1-0.7,0.1-1,0.3c-2-3.1-4.1-6.3-6.5-9.7C35.5,28.3,37.2,26.5,38.9,24.7z M38.4,41.5
		c-2.7-1.2-6.2-2.2-10.6-3.1c0,0,0-0.1,0-0.1c0-0.4-0.1-0.7-0.2-1c1.3-1.6,3-3.5,4.9-5.7c2.3,3.3,4.4,6.4,6.3,9.4
		C38.7,41.2,38.5,41.3,38.4,41.5z M27.1,40.3l0.2-0.1c4.5,0.9,7.9,2,10.5,3.1c0,0.1,0,0.2,0,0.3c0,0.6,0.2,1.2,0.5,1.8
		c-2.7,0.6-6.9,1.5-11.4,2.6c-0.6-2.4-1.1-4.7-1.4-6.7C26.2,41.2,26.7,40.8,27.1,40.3z M61.4,53.6c-1.4-0.8-2.8-1.7-4.2-2.5
		c0.5-2.1,1-4.1,1.4-6.1c0.4-1.5,0.7-2.9,1-4.3c0.1,0,0.3-0.1,0.4-0.1c2.1,2.6,4.1,5.4,6,8.5C64.4,50.6,62.9,52.1,61.4,53.6z
		 M63.9,35.6l-2.3,0.2c-0.6-0.8-1.6-1.4-2.8-1.4l0,0c-0.6,0-1.2,0.2-1.7,0.5c-0.9-0.9-1.9-1.9-3.1-3c1.2-1.1,2.4-2.3,3.6-3.4
		c2.1-2,3.9-3.6,5.6-5.4c1.5,1.3,3.1,2.6,4.6,3.9c-0.1,2.5,0,5.2,0.3,8.2C66.7,35.4,65.3,35.5,63.9,35.6z M37.5,23.4
		c-1.6,1.7-3.3,3.4-4.8,5.1c-2.6-3.7-5.5-7.5-8.8-11.8c0.5-0.3,0.9-0.6,1.4-0.8c3.8,1.5,7.7,3.1,11.3,4.8c0,0.2,0,0.4,0,0.5
		C36.5,22,36.9,22.8,37.5,23.4z M22.2,17.7c3.4,4.4,6.4,8.4,9.1,12.2c-1.9,2.1-3.6,4-4.9,5.7c-0.1-0.1-0.2-0.1-0.3-0.2
		c-0.8-2.7-1.6-5.7-2.3-8.4c-0.7-2.7-1.5-5.9-2.4-8.8C21.7,18,21.9,17.9,22.2,17.7z M17.2,44.9c1.7-1.5,3.3-3,4.9-4.5
		c0.4,0.4,0.8,0.7,1.3,0.9c0.3,2.2,0.9,4.6,1.5,7.2c-8,2.1-13.6,4.2-16.7,6.2C8.2,54.5,8.1,54.3,8,54c0-0.3,0.1-0.5,0.1-0.8
		c2.9-2.8,5.9-5.5,8.9-8.1L17.2,44.9z M25.5,50.5c0.8,3,1.7,5.6,2.6,7.7c-0.1,0.1-0.2,0.2-0.3,0.2c-0.1,0.2-0.3,0.3-0.4,0.5
		c-5.1-1.5-13.4-2.1-18.6-2.2C11.1,55.1,15.8,53,25.5,50.5z M42,79.8l0.7,0.1c-0.3,0.5-0.5,1.1-0.8,1.6C41.9,80.9,42,80.3,42,79.8z
		 M67.5,47.8c-1.9-3.1-3.9-5.9-5.9-8.4c0.3-0.5,0.5-1.1,0.5-1.7l2.7-0.2c1.1-0.1,2.2-0.2,3.3-0.3c0.2,2.7,0.6,5.6,1.1,9
		C68.7,46.7,68.1,47.3,67.5,47.8z M64.7,21.6c1.4-1.4,2.6-2.6,3.6-3.8c0.2,0.1,0.4,0.1,0.6,0.1c-0.5,1.9-0.9,4-1,6.4
		C66.8,23.5,65.8,22.5,64.7,21.6z M56.2,27.1c-1.2,1.2-2.5,2.4-3.8,3.6c-1.4-1.1-2.8-2.3-4.4-3.5c-1.9-1.5-3.7-2.9-5.5-4.4
		c0.3-0.5,0.5-1.1,0.5-1.7c0-0.2,0-0.4-0.1-0.6c3.8-1.7,8.9-3,12.9-3.9c1.9,1.8,3.8,3.5,5.8,5.3C59.9,23.6,58,25.4,56.2,27.1z
		 M39.4,14.9C39.2,16,39,17,38.8,18c-0.5,0.2-1,0.4-1.4,0.8c0,0,0,0,0,0c-3.2-1.5-6.6-2.9-10-4.3c1.1-0.6,2.2-1.3,3.2-1.9l0.3-0.2
		c0.9-0.5,1.8-1,2.6-1.6c2.2,0,4.4,0.1,6.6,0.2C39.9,12.4,39.7,13.7,39.4,14.9z M21.4,37.6c-0.1,0.2-0.1,0.5-0.1,0.8
		c0,0.1,0,0.1,0,0.2c-1.7,1.6-3.5,3.2-5.3,4.8l-0.2,0.2c-2.2,2-4.7,4.2-7.1,6.4c1-5,2.2-10.4,3.7-16.2c2,0.8,4,1.6,5.9,2.5l1,0.4
		C20,37,20.7,37.3,21.4,37.6z M27,60.8c0,0.1,0,0.2,0,0.2c-2.6,1.6-5.4,3.5-8.3,5.7c-3.5-3.1-6.5-5.8-9.3-8.1
		C14.9,58.8,22.5,59.5,27,60.8z M32.6,62.9c0.3-0.3,0.5-0.6,0.6-0.9c2.2,0.4,4.8,0.8,7.4,1.4c-0.1,4.3-0.3,8.8-0.5,14.2L38,77.3
		c-1.1-2.7-2.3-5.4-3.4-7.7c-0.8-1.8-1.8-3.9-2.7-6.1C32.1,63.3,32.4,63.1,32.6,62.9z M53.1,68.2L53.1,68.2L53.1,68.2L53.1,68.2z
		 M70.4,58.9c0,0-0.1,0.1-0.1,0.1c-2.3-1.5-4.6-2.9-7-4.3c1.2-1.2,2.4-2.4,3.9-3.7c1.3,2.3,2.6,4.8,3.9,7.4
		C70.8,58.5,70.6,58.7,70.4,58.9z M62.1,13.2c-1.7,0.4-3.6,0.7-5.4,1.1c-0.8-0.8-1.6-1.5-2.3-2.2C57.2,12.5,59.8,12.8,62.1,13.2z
		 M42,18.7c-0.3-0.3-0.7-0.5-1.2-0.7c0.2-0.9,0.4-1.8,0.6-2.8c0.3-1.3,0.5-2.7,0.8-4.1c3,0.2,6,0.4,8.8,0.6c1,1,2.1,2.1,3.2,3.1
		C48.8,16.2,44.9,17.4,42,18.7z M41.7,5.8C41.7,5.8,41.7,5.9,41.7,5.8c-0.3,1.1-0.6,2.1-1,3.4c-1.4-0.1-2.7-0.1-4-0.2
		C38.4,8,40.1,6.9,41.7,5.8z M42.7,9.3c0.3-1,0.6-2,0.9-2.8l0.1,0c0.6,0,1.2-0.2,1.7-0.5c1.2,1.2,2.3,2.5,3.6,3.8
		C46.9,9.5,44.8,9.4,42.7,9.3z M29.6,10.9l-0.5,0.3c-1.3,0.8-2.6,1.6-4,2.4c-0.8-0.3-1.5-0.6-2.3-0.9c0.1-0.4,0.2-0.7,0.1-1.1
		c0-0.2,0-0.5-0.1-0.7c2-0.1,4.2-0.1,6.7-0.1c0.1,0,0.1,0,0.2,0C29.8,10.9,29.7,10.9,29.6,10.9z M18.3,15.9c0.2,0.5,0.4,1,0.6,1.6
		c-0.8,0.5-1.6,1.1-2.4,1.6c0.3-1.1,0.7-2.2,1-3.3C17.8,15.8,18.1,15.9,18.3,15.9z M23.8,35.2c-0.5,0.1-1,0.4-1.4,0.7
		c-0.9-0.4-1.8-0.7-2.7-1.1l-0.4-0.2c-1.9-0.8-4.2-1.8-6.4-2.7c0.8-3.1,1.7-6.4,2.7-9.9c1.2-0.8,2.4-1.7,3.9-2.6
		c0.8,2.7,1.6,5.7,2.2,8.1C22.4,30.1,23,32.7,23.8,35.2z M18.5,69.4c1.9,1.7,3.9,3.6,6.2,5.8c-3.7-0.7-7.8-1.5-11-1.8
		C15.2,72,16.8,70.7,18.5,69.4z M27.8,62.8c0.5,0.6,1.2,0.9,2,1c0.9,2.3,2,4.5,2.9,6.5c1.1,2.3,2,4.4,2.9,6.6
		c-2-0.3-4.1-0.6-6.1-0.9c-0.3-0.1-0.6-0.1-1-0.2c-2.5-2.4-5.4-5.1-8.4-7.8C22.9,66,25.4,64.3,27.8,62.8z M45.7,78.3
		c1.9-3.8,3.8-7.3,5.9-9.8c0.5,0.2,1,0.4,1.5,0.4h0.1c0.2,0,0.3,0,0.5-0.1c0.2,0.4,0.4,0.9,0.7,1.3c0.4,0.8,0.8,1.6,1.2,2.4
		c-3,2-5.9,3.9-8.4,5.9C46.6,78.4,46.1,78.4,45.7,78.3z M56.1,69.4c-0.2-0.5-0.5-0.9-0.7-1.4c0.6-0.6,0.9-1.3,0.9-2.2
		c2.2-0.6,6.1-1.4,13.2-2.4c0.1,0.3,0.3,0.6,0.5,0.8c-4.3,2.3-8.8,4.8-12.9,7.4c-0.3-0.6-0.6-1.3-0.9-1.9L56.1,69.4z M71.1,44.6
		c-0.4-2.8-0.7-5.3-0.9-7.6c3.5-0.3,6.3-0.4,9-0.5c0.1,0.4,0.3,0.7,0.5,1C76.6,40,73.7,42.4,71.1,44.6z M56.4,74.6
		c1,2,2.2,4.3,3.6,6.7c0,0,0,0,0,0c-0.1,0.1-0.1,0.2-0.2,0.2c-2.8-1-6-1.8-9.9-2.5C52,77.5,54.1,76.1,56.4,74.6z M74.5,29.2
		c-1.7-1.1-3.4-2.2-4.7-3.3c0.1-3.2,0.6-5.9,1.3-8.2c0.1,0,0.2-0.1,0.3-0.2c2.5,4.3,5.8,10,8.8,15.7C78.5,31.8,76.5,30.5,74.5,29.2z
		 M65.8,11.9c-3.8-0.8-8.3-1.4-13.5-1.9c-1.8-1.7-3.4-3.5-5-5.2c7.7,2.1,14,4.2,19,6.4C66,11.5,65.9,11.7,65.8,11.9z M38.3,5.7
		c-1.7,1.1-3.5,2.2-5.3,3.2c-1.1,0-2.3,0-3.3,0c-1.1,0-2.1,0-3.1,0c0.2-0.1,0.4-0.1,0.5-0.1C30.7,7.8,34.6,6.7,38.3,5.7z M13.7,21
		c-2.3,1.7-4.2,3.3-5.6,4.8c1.8-2.9,4.2-5.7,6.7-8.3C14.4,18.7,14,19.9,13.7,21z M43.5,84.2c1.3-1.2,2.7-2.4,4.3-3.6
		c3,0.5,5.6,1,7.9,1.6c-1.4,0.2-2.8,0.5-4,0.8c-2.7,0.6-5.5,1.2-8,1.3C43.6,84.3,43.6,84.2,43.5,84.2z M62.2,80.3
		c-0.1,0-0.3,0-0.4,0c-1.4-2.4-2.7-4.8-3.7-6.8c4.6-2.9,8.9-5.3,12.3-7.1c-2.1,3-4.1,6.5-5.9,9.8l-0.1,0.2
		C63.6,77.8,62.9,79.1,62.2,80.3z M73.4,57.6L73.4,57.6c-0.1,0-0.2,0-0.3,0c-0.2-1.4-0.4-2.8-0.7-4.3l-0.1-0.4
		c-0.3-1.8-0.6-3.8-0.9-5.8c3-2.7,6.4-5.4,9.9-8.3c0,0,0.1,0,0.1,0c-1.1,5-4.5,13.2-7.3,18.8C73.9,57.6,73.7,57.6,73.4,57.6z" />
	</g>
</svg>
