<svg version="1.1" id="Capa_1" xmlns="http://www.w3.org/2000/svg" xmlns:xlink="http://www.w3.org/1999/xlink" x="0" y="0" viewBox="0 0 83 67.2" xml:space="preserve" enable-background="new 0 0 83 67.2"><g fill="currentColor"><g><path d="M69.1,20.8c-1.1,0-2.1,0.9-2.1,2.1c0,1.1,0.9,2.1,2.1,2.1c1.1,0,2.1-0.9,2.1-2.1C71.2,21.7,70.3,20.8,69.1,20.8 M69.1,27.5c-2.5,0-4.6-2.1-4.6-4.6c0-2.6,2.1-4.6,4.6-4.6c2.5,0,4.6,2.1,4.6,4.6C73.7,25.4,71.7,27.5,69.1,27.5"/><path d="M75.4,35.3l-2.3-1.1c0.3-0.6,0.5-1.3,0.5-2c0-2.5-2-4.5-4.5-4.5c-2.5,0-4.5,2-4.5,4.5c0,0.7,0.2,1.4,0.5,2l-2.3,1.1 c-0.5-1-0.7-2-0.7-3.1c0-3.9,3.1-7.1,7-7.1c3.8,0,7,3.2,7,7.1C76.1,33.3,75.9,34.4,75.4,35.3"/></g><polygon points="69,47.2 62.8,35.3 65.1,34.1 69,41.8 73.2,34.1 75.4,35.3"/><g><path d="M7,44.2c-1.1,0-2.1,0.9-2.1,2.1c0,1.2,0.9,2.1,2.1,2.1c1.1,0,2.1-0.9,2.1-2.1C9,45.1,8.1,44.2,7,44.2 M7,50.9 c-2.5,0-4.6-2.1-4.6-4.6c0-2.6,2.1-4.6,4.6-4.6c2.5,0,4.6,2.1,4.6,4.6C11.6,48.8,9.5,50.9,7,50.9"/><path d="M0.7,58.7c-0.5-1-0.7-2-0.7-3.1c0-3.9,3.1-7.1,7-7.1c2.2,0,4.2,1,5.6,2.8l-2,1.5c-0.9-1.1-2.1-1.8-3.6-1.8 c-2.5,0-4.5,2-4.5,4.5c0,0.7,0.2,1.4,0.5,2L0.7,58.7z"/><path d="M20.8,44.2c-1.1,0-2.1,0.9-2.1,2.1c0,1.2,0.9,2.1,2.1,2.1c1.1,0,2.1-0.9,2.1-2.1C22.8,45.1,21.9,44.2,20.8,44.2 M20.8,50.9c-2.5,0-4.6-2.1-4.6-4.6c0-2.6,2.1-4.6,4.6-4.6c2.5,0,4.6,2.1,4.6,4.6C25.4,48.8,23.3,50.9,20.8,50.9"/><path d="M17.1,53l-2.1-1.5c1.3-1.9,3.4-3,5.7-3c2.3,0,4.4,1.1,5.7,3L24.4,53C22.8,50.6,18.8,50.6,17.1,53"/><path d="M34.6,44.2c-1.1,0-2.1,0.9-2.1,2.1c0,1.2,0.9,2.1,2.1,2.1s2.1-0.9,2.1-2.1C36.6,45.1,35.7,44.2,34.6,44.2 M34.6,50.9 c-2.5,0-4.6-2.1-4.6-4.6c0-2.6,2.1-4.6,4.6-4.6c2.5,0,4.6,2.1,4.6,4.6C39.2,48.8,37.1,50.9,34.6,50.9"/><path d="M38.2,53c-1.7-2.4-5.6-2.4-7.3,0l-2.1-1.5c1.3-1.9,3.4-3,5.7-3c2.3,0,4.4,1.1,5.7,3L38.2,53z"/><path d="M48.4,44.2c-1.1,0-2.1,0.9-2.1,2.1c0,1.2,0.9,2.1,2.1,2.1s2.1-0.9,2.1-2.1C50.4,45.1,49.5,44.2,48.4,44.2 M48.4,50.9 c-2.5,0-4.6-2.1-4.6-4.6c0-2.6,2.1-4.6,4.6-4.6c2.5,0,4.6,2.1,4.6,4.6C53,48.8,50.9,50.9,48.4,50.9"/><path d="M44.7,53l-2.1-1.5c1.3-1.9,3.4-3,5.7-3c2.3,0,4.4,1.1,5.7,3L52,53C50.4,50.6,46.4,50.6,44.7,53"/><path d="M62.2,44.2c-1.1,0-2.1,0.9-2.1,2.1c0,1.2,0.9,2.1,2.1,2.1c1.1,0,2.1-0.9,2.1-2.1C64.3,45.1,63.3,44.2,62.2,44.2 M62.2,50.9c-2.5,0-4.6-2.1-4.6-4.6c0-2.6,2.1-4.6,4.6-4.6c2.5,0,4.6,2.1,4.6,4.6C66.8,48.8,64.7,50.9,62.2,50.9"/><path d="M58.6,53l-2.1-1.5c1.3-1.9,3.4-3,5.7-3c2.3,0,4.4,1.1,5.7,3L65.9,53C64.2,50.6,60.2,50.6,58.6,53"/><path d="M76,44.2c-1.1,0-2.1,0.9-2.1,2.1c0,1.2,0.9,2.1,2.1,2.1c1.1,0,2.1-0.9,2.1-2.1C78.1,45.1,77.1,44.2,76,44.2 M76,50.9 c-2.5,0-4.6-2.1-4.6-4.6c0-2.6,2.1-4.6,4.6-4.6c2.5,0,4.6,2.1,4.6,4.6C80.6,48.8,78.5,50.9,76,50.9"/><path d="M82.3,58.7L80,57.6c0.3-0.6,0.5-1.3,0.5-2c0-2.5-2-4.5-4.5-4.5c-1.4,0-2.8,0.7-3.7,1.9l-2.1-1.5c1.3-1.9,3.5-3,5.7-3 c3.9,0,7,3.2,7,7.1C83,56.7,82.7,57.7,82.3,58.7"/><path d="M13.9,52.7c-1.1,0-2.1,0.9-2.1,2.1c0,1.1,0.9,2.1,2.1,2.1c1.1,0,2.1-0.9,2.1-2.1C15.9,53.6,15,52.7,13.9,52.7 M13.9,59.4 c-2.5,0-4.6-2.1-4.6-4.6c0-2.6,2.1-4.6,4.6-4.6c2.5,0,4.6,2.1,4.6,4.6C18.5,57.3,16.4,59.4,13.9,59.4"/><path d="M20.2,67.2l-2.3-1.1c0.3-0.6,0.5-1.3,0.5-2c0-2.5-2-4.5-4.5-4.5c-2.5,0-4.5,2-4.5,4.5c0,0.7,0.2,1.4,0.5,2l-2.3,1.1 c-0.5-1-0.7-2-0.7-3.1c0-3.9,3.1-7.1,7-7.1c3.8,0,7,3.2,7,7.1C20.9,65.2,20.6,66.2,20.2,67.2"/><path d="M27.7,52.7c-1.1,0-2.1,0.9-2.1,2.1c0,1.1,0.9,2.1,2.1,2.1c1.1,0,2.1-0.9,2.1-2.1C29.7,53.6,28.8,52.7,27.7,52.7 M27.7,59.4c-2.5,0-4.6-2.1-4.6-4.6c0-2.6,2.1-4.6,4.6-4.6c2.5,0,4.6,2.1,4.6,4.6C32.3,57.3,30.2,59.4,27.7,59.4"/><path d="M34,67.2l-2.3-1.1c0.3-0.6,0.5-1.3,0.5-2c0-2.5-2-4.5-4.5-4.5c-2.5,0-4.5,2-4.5,4.5c0,0.7,0.1,1.4,0.5,2l-2.3,1.1 c-0.5-1-0.7-2-0.7-3.1c0-3.9,3.1-7.1,7-7.1c3.8,0,7,3.2,7,7.1C34.7,65.2,34.4,66.2,34,67.2"/><path d="M41.5,52.7c-1.1,0-2.1,0.9-2.1,2.1c0,1.1,0.9,2.1,2.1,2.1s2.1-0.9,2.1-2.1C43.6,53.6,42.6,52.7,41.5,52.7 M41.5,59.4 c-2.5,0-4.6-2.1-4.6-4.6c0-2.6,2.1-4.6,4.6-4.6c2.5,0,4.6,2.1,4.6,4.6C46.1,57.3,44,59.4,41.5,59.4"/><path d="M47.8,67.2l-2.3-1.1c0.3-0.6,0.5-1.3,0.5-2c0-2.5-2-4.5-4.5-4.5c-2.5,0-4.5,2-4.5,4.5c0,0.7,0.2,1.4,0.5,2l-2.3,1.1 c-0.5-1-0.7-2-0.7-3.1c0-3.9,3.1-7.1,7-7.1c3.8,0,7,3.2,7,7.1C48.5,65.2,48.2,66.2,47.8,67.2"/><path d="M55.3,52.7c-1.1,0-2.1,0.9-2.1,2.1c0,1.1,0.9,2.1,2.1,2.1c1.1,0,2.1-0.9,2.1-2.1C57.4,53.6,56.4,52.7,55.3,52.7 M55.3,59.4c-2.5,0-4.6-2.1-4.6-4.6c0-2.6,2.1-4.6,4.6-4.6c2.5,0,4.6,2.1,4.6,4.6C59.9,57.3,57.8,59.4,55.3,59.4"/><path d="M61.6,67.2L59.3,66c0.3-0.6,0.5-1.3,0.5-2c0-2.5-2-4.5-4.5-4.5c-2.5,0-4.5,2-4.5,4.5c0,0.7,0.2,1.4,0.5,2L49,67.2 c-0.5-1-0.7-2-0.7-3.1c0-3.9,3.1-7.1,7-7.1c3.8,0,7,3.2,7,7.1C62.3,65.2,62,66.2,61.6,67.2"/><path d="M69.1,52.7c-1.1,0-2.1,0.9-2.1,2.1c0,1.1,0.9,2.1,2.1,2.1c1.1,0,2.1-0.9,2.1-2.1C71.2,53.6,70.2,52.7,69.1,52.7 M69.1,59.4c-2.5,0-4.6-2.1-4.6-4.6c0-2.6,2.1-4.6,4.6-4.6c2.5,0,4.6,2.1,4.6,4.6C73.7,57.3,71.6,59.4,69.1,59.4"/><path d="M75.4,67.2L73.1,66c0.3-0.6,0.5-1.3,0.5-2c0-2.5-2-4.5-4.5-4.5c-2.5,0-4.5,2-4.5,4.5c0,0.7,0.2,1.4,0.5,2l-2.3,1.1 c-0.5-1-0.7-2-0.7-3.1c0-3.9,3.1-7.1,7-7.1c3.8,0,7,3.2,7,7.1C76.1,65.2,75.8,66.2,75.4,67.2"/><path d="M64.9,37.9H18.3c-2.2,0-4-1.8-4-4.1V4.1c0-2.2,1.8-4.1,4-4.1h46.3c2.2,0,4,1.8,4,4.1v16h-2.5v-16c0-0.8-0.7-1.5-1.5-1.5 H18.3c-0.8,0-1.5,0.7-1.5,1.5v29.7c0,0.8,0.7,1.5,1.5,1.5h46.5V37.9L64.9,37.9z"/></g><rect x="16" y="7.1" width="51" height="2.6"/></g></svg>