<svg height="274.468" viewBox="0 0 549 274.468" width="549" xmlns="http://www.w3.org/2000/svg"><path d="m411.838 137.306h-137.163v137.163h137.163zm-68.51 120.3a52.629 52.629 0 0 1 -5.3-.267 51.716 51.716 0 0 1 -46.23-46.23 52.573 52.573 0 0 1 0-10.591 51.716 51.716 0 0 1 46.23-46.23 52.568 52.568 0 0 1 10.591 0 51.716 51.716 0 0 1 46.23 46.23 52.568 52.568 0 0 1 0 10.591 51.716 51.716 0 0 1 -46.23 46.23 52.629 52.629 0 0 1 -5.291.267zm-206.165 16.862v-137.163l-137.163 137.163z" fill="#e9e2df"/><path d="m549 137.163v-137.163l-137.163 137.163z" fill="#f41f1f"/><path d="m411.838 137.306h137.162v137.163h-137.162z" fill="#e9e2df"/><path d="m137.468 137.306h11.324v137.163h-11.324zm19.579 0h11.324v137.163h-11.324zm19.579 0h11.324v137.163h-11.324zm19.579 0h11.324v137.163h-11.324zm19.579 0h11.324v137.163h-11.324zm19.579 0h11.324v137.163h-11.324zm19.579 0h11.324v137.163h-11.324z" fill="#f41f1f"/></svg>