<svg xmlns="http://www.w3.org/2000/svg" width="549" height="274.468" viewBox="0 0 549 274.468"><defs><style>.a{fill:#e9e2df}.b{fill:#f41f1f}</style></defs><path class="a" d="M411.838 137.306H274.675v137.163h137.163V137.306zm-68.51 120.3a52.629 52.629 0 01-5.3-.267 51.716 51.716 0 01-46.23-46.23 52.573 52.573 0 010-10.591 51.716 51.716 0 0146.23-46.23 52.568 52.568 0 0110.591 0 51.716 51.716 0 0146.23 46.23 52.568 52.568 0 010 10.591 51.716 51.716 0 01-46.23 46.23 52.629 52.629 0 01-5.291.267zM137.163 274.468V137.305L0 274.468z"/><path class="b" d="M549 137.163V0L411.837 137.163z"/><path class="a" d="M411.838 137.306H549v137.163H411.838z"/><path class="b" d="M137.468 137.306h11.324v137.163h-11.324zM157.047 137.306h11.324v137.163h-11.324zM176.626 137.306h11.324v137.163h-11.324zM196.205 137.306h11.324v137.163h-11.324zM215.784 137.306h11.324v137.163h-11.324zM235.363 137.306h11.324v137.163h-11.324zM254.942 137.306h11.324v137.163h-11.324z"/></svg>